<svg width="6" height="11" viewBox="0 0 6 11" fill="none" xmlns="http://www.w3.org/2000/svg">
<path d="M4.72266 0.478516L0.222656 4.97852C0.0703125 5.11914 -0.00585938 5.28906 -0.00585938 5.48828C-0.00585938 5.69922 0.0703125 5.88086 0.222656 6.0332L4.72266 10.5332C4.86328 10.6738 5.03906 10.7441 5.25 10.7441C5.46094 10.7441 5.63672 10.6738 5.77734 10.5332C5.92969 10.3809 6.00586 10.1992 6.00586 9.98828C6.00586 9.78906 5.92969 9.61914 5.77734 9.47852L1.80469 5.50586L5.77734 1.5332C5.92969 1.38086 6.00586 1.19922 6.00586 0.988281C6.00586 0.789062 5.92969 0.619141 5.77734 0.478516C5.63672 0.326172 5.46094 0.25 5.25 0.25C5.03906 0.25 4.86328 0.326172 4.72266 0.478516Z" fill="#212529"/>
</svg>
